<svg xmlns="http://www.w3.org/2000/svg" fill="none" viewBox="0 0 24 24">
  <path stroke="#2dd4bf" stroke-linecap="round" stroke-linejoin="round" stroke-width="1.5" d="M4.26 10.147a60.436 60.436 0 0 0-.491 6.347A48.972 48.972 0 0 1 12 21.75c2.305 0 4.547-.27 6.733-.849a60.452 60.452 0 0 0-.491-6.347m-15.482 0a50.57 50.57 0 0 0-2.658-.813A59.905 59.905 0 0 1 12 3.45c2.305 0 4.547.27 6.733-.849c.471.146.94.31 1.388.491M12 18.75c-2.305 0-4.547-.27-6.733-.849M12 12.75c2.305 0 4.547-.27 6.733-.849M12 12.75c-2.305 0-4.547-.27-6.733-.849M12 3.45a59.905 59.905 0 0 1 7.153 3.195M9.75 12.75a3 3 0 1 1-6 0 3 3 0 0 1 6 0Zm6 0a3 3 0 1 1-6 0 3 3 0 0 1 6 0Z" />
</svg>